<?xml version="1.0" encoding="UTF-8" standalone="no"?>
<svg
   viewBox="0 0 36 44"
   version="1.1"
   xmlns="http://www.w3.org/2000/svg">
  <g transform="translate(-73, -127)">
    <path
       style="fill:#b653fe;stroke:#2c133d;stroke-width:0.5;stroke-linecap:round;stroke-linejoin:round"
       d="m 73.612157,137.49999 17.320506,10 17.320507,-10 -17.320507,-10 z" />
    <path
       style="fill:#7228bb;stroke:#2c133d;stroke-width:0.5;stroke-linecap:round;stroke-linejoin:round"
       d="m 108.25317,137.49999 v 20 l -17.320507,10 v -20 z" />
    <path
       style="fill:#b24ff8;stroke:#2c133d;stroke-width:0.5;stroke-linecap:round;stroke-linejoin:round"
       d="m 73.612157,137.49999 17.320506,10 v 20 l -17.320506,-10 z" />
    <path
       style="fill:#af4bf9;stroke:#2c133d;stroke-width:0.5;stroke-linecap:round;stroke-linejoin:round"
       d="m 77.076257,137.49999 1.732052,1 1.73205,-1 -1.73205,-0.99999 z" />
    <path
       style="fill:#af4bf9;stroke:#2c133d;stroke-width:0.5;stroke-linecap:round;stroke-linejoin:round"
       d="m 78.808309,134.49999 17.320506,10" />
    <path
       style="fill:#af4bf9;stroke:#2c133d;stroke-width:0.5;stroke-linecap:round;stroke-linejoin:round"
       d="m 78.808309,140.5 3.4641,-2.00001" />
    <path
       style="fill:#af4bf9;stroke:#2c133d;stroke-width:0.5;stroke-linecap:round;stroke-linejoin:round"
       d="m 84.004461,137.49999 12.124354,-7" />
    <path
       style="fill:#af4bf9;stroke:#2c133d;stroke-width:0.5;stroke-linecap:round;stroke-linejoin:round"
       d="M 92.664715,130.49999 91.798689,131" />
    <path
       style="fill:#af4bf9;stroke:#2c133d;stroke-width:0.5;stroke-linecap:round;stroke-linejoin:round"
       d="m 90.932663,131.49999 -0.866024,0.5" />
    <path
       style="fill:#af4bf9;stroke:#2c133d;stroke-width:0.5;stroke-linecap:round;stroke-linejoin:round"
       d="m 73.612157,153.49999 1.732051,1.00001 1.732049,2.99999 v 2" />
    <path
       style="fill:none;stroke:#2c133d;stroke-width:0.5;stroke-linecap:round;stroke-linejoin:round"
       d="M 73.612157,152.49999 76.210233,154 l 1.732051,3 -10e-7,2.99999" />
    <path
       style="fill:#42f0f2;stroke:#2c133d;stroke-width:1.5;stroke-linecap:round;stroke-linejoin:round"
       d="m 77.076259,145.5 v 4 l 10.392304,5.99999 v -4 z" />
    <path
       style="fill:none;stroke:#2c133d;stroke-width:0.5;stroke-linecap:round;stroke-linejoin:round"
       d="m 106.52112,156.49999 v -2 l -1.73205,1 v 2 z" />
    <path
       style="fill:none;stroke:#2c133d;stroke-width:0.5;stroke-linecap:round;stroke-linejoin:round"
       d="m 108.25317,151.49999 -3.4641,2 -1.73205,3 v 4" />
    <path
       style="fill:none;stroke:#2c133d;stroke-width:0.5;stroke-linecap:round;stroke-linejoin:round"
       d="m 106.52112,138.49999 v 10 l -0.86602,0.5 V 139" />
    <path
       style="fill:none;stroke:#2c133d;stroke-width:0.5;stroke-linecap:round;stroke-linejoin:round"
       d="m 103.92305,140 v 10" />
    <path
       style="fill:none;stroke:#2c133d;stroke-width:0.5;stroke-linecap:round;stroke-linejoin:round"
       d="M 90.932663,165.49999 99.592919,160.5 v 2" />
    <path
       style="fill:none;stroke:#2c133d;stroke-width:0.5;stroke-linecap:round;stroke-linejoin:round"
       d="M 90.932663,164.49999 99.592919,159.5 v 1" />
    <path
       style="fill:none;stroke:#2c133d;stroke-width:0.5;stroke-linecap:round;stroke-linejoin:round"
       d="M 90.932663,163.49999 99.592919,158.5 v 1" />
    <path
       style="fill:none;stroke:#2c133d;stroke-width:0.5;stroke-linecap:round;stroke-linejoin:round"
       d="m 90.932663,161.49999 3.464102,-2" />
    <path
       style="fill:none;stroke:#2c133d;stroke-width:0.5;stroke-linecap:round;stroke-linejoin:round"
       d="m 95.262791,158.99999 0.866024,-0.5" />
    <path
       style="fill:none;stroke:#2c133d;stroke-width:0.5;stroke-linecap:round;stroke-linejoin:round"
       d="m 96.994841,157.99999 0.866026,-0.5" />
    <path
       style="fill:none;stroke:#2c133d;stroke-width:0.5;stroke-linecap:round;stroke-linejoin:round"
       d="m 101.32497,160.49999 v -1" />
    <path
       style="fill:none;stroke:#2c133d;stroke-width:0.5;stroke-linecap:round;stroke-linejoin:round"
       d="m 101.32497,158.49999 v -1" />
    <path
       style="fill:none;stroke:#2c133d;stroke-width:0.5;stroke-linecap:round;stroke-linejoin:round"
       d="M 90.932663,159.49999 102.19099,153 l 1.73206,-3" />
  </g>
</svg>
